<?xml version="1.0" encoding="utf-8"?>
<svg width="117px" xmlns="http://www.w3.org/2000/svg">
  <defs>
    <clipPath id="clip-0">
      <circle style="fill: rgb(216, 216, 216); fill-opacity: 0.73;" cx="251.633" cy="354.964" r="161.763">
        <title>outline</title>
      </circle>
    </clipPath>
  </defs>
  <g style="clip-path: url(#clip-0);">
    <rect x="35.87" y="193.201" width="428.258" height="176.074" style="fill: rgb(50, 212, 220);"/>
    <rect x="17.419" y="368.797" width="465.161" height="155.959" style="fill: rgb(157, 194, 25);"/>
    <g transform="matrix(0.936363, 0, 0, 1.025735, 15.887961, -3.572049)">
      <path style="fill: rgb(95, 94, 94); stroke: rgb(255, 233, 164); stroke-width: 0px;" d="M 183.205 365.545 L 106.87 514.313 L 393.13 514.313 L 317.748 364.505 L 183.205 365.545 Z"/>
      <g transform="matrix(1.420976, 0, 0, 1.425762, -894.65094, -178.28566)">
        <polygon style="stroke-opacity: 0; stroke: rgb(255, 255, 255); fill: rgb(255, 255, 255);" points="804.413 404.632 803.465 428.279 809.02 428.279 808.227 404.745" transform=""/>
        <polygon style="stroke-opacity: 0; stroke: rgb(255, 255, 255); fill: rgb(255, 255, 255);" points="803.255 453.245 802.37 483.046 810.679 483.04 809.618 453.225" transform=""/>
        <polygon style="stroke-opacity: 0; stroke: rgb(255, 255, 255); fill: rgb(255, 255, 255);" points="764.642 380.664 711.238 485.798 718.222 485.798 768.335 380.964"/>
        <polygon style="stroke-opacity: 0; stroke: rgb(255, 255, 255); fill: rgb(255, 255, 255);" points="897.151 485.798 844.692 379.992 850.124 379.992 900.35 485.491" transform="matrix(-1 0 0 -1 1746.75 865.79)"/>
        <polygon style="stroke-opacity: 0; stroke: rgb(255, 255, 255); fill: rgb(242, 235, 157);" points="758.44 380.305 700.976 486.307 707.117 486.081 761.434 380.458" transform=""/>
        <polygon style="stroke-opacity: 0; stroke: rgb(255, 255, 255); fill: rgb(242, 235, 157);" points="912.419 486.53 856.271 381.352 861.327 381.467 915.128 486.683" transform="matrix(-1 0 0 -1 1767.52 867.15)"/>
      </g>
    </g>
    <g transform="matrix(1, 0, 0, 1, -4.255795, -3.484797)">
      <path id="Tower_7_" style="stroke-miterlimit: 1; fill: rgb(111, 111, 111);" d="M 390.412 286.963 L 385.495 308.139 C 384.868 310.99 384.446 312.536 383.451 313.743 C 381.375 316.281 377.736 317.827 374.221 318.134 L 374.195 318.152 C 374.195 324.956 374.195 336.765 374.195 336.765 L 374.189 336.765 L 374.189 383.15 L 374.181 383.15 C 373.995 383.785 370.707 384.54 366.623 384.54 C 362.54 384.54 359.167 383.785 358.98 383.15 L 358.972 383.15 L 358.972 336.765 L 359.002 336.765 L 359.007 318.075 C 356.104 317.681 351.742 316.149 349.776 313.743 C 348.777 312.539 348.356 310.99 347.727 308.139 L 342.8 286.963 C 341.697 282.267 344.665 280.71 347.42 279.617 C 350.63 278.339 353.726 277.535 356.717 277.035 L 356.714 277.033 L 354.039 267.412 C 353.704 266.207 354.38 265.035 355.508 264.499 C 358.022 263.306 361.023 262.602 361.023 262.602 C 360.07 261.391 359.498 259.867 359.498 258.206 C 359.498 254.281 362.678 251.102 366.602 251.102 C 370.526 251.102 373.706 254.281 373.706 258.206 C 373.706 259.867 373.135 261.393 372.18 262.604 C 372.18 262.604 375.18 263.307 377.696 264.501 C 378.824 265.035 379.498 266.208 379.163 267.416 L 376.488 277.035 C 379.483 277.535 382.578 278.338 385.796 279.617 C 388.552 280.71 391.517 282.267 390.412 286.963 Z"/>
      <g>
        <path id="Tower_7_" style="stroke-miterlimit: 1; fill: rgb(223, 222, 222);" d="M 386.171 290.479 L 383.432 302.436 C 383.352 302.785 383.135 303.085 382.828 303.267 C 382.517 303.443 382.149 303.494 381.806 303.389 L 376.515 301.981 C 375.859 301.786 375.465 301.134 375.596 300.467 L 378.079 288.265 C 378.157 287.905 378.385 287.591 378.699 287.407 C 379.024 287.224 379.409 287.18 379.758 287.293 L 385.303 288.947 C 385.953 289.149 386.328 289.822 386.171 290.479 Z"/>
        <path id="Tower_7_" style="stroke-miterlimit: 1; fill: rgb(223, 222, 222);" d="M 372.527 300.303 C 372.413 300.923 371.879 301.37 371.25 301.37 L 361.979 301.37 C 361.348 301.37 360.807 300.925 360.693 300.303 L 358.408 287.697 C 358.338 287.314 358.433 286.92 358.691 286.621 C 358.935 286.322 359.302 286.159 359.687 286.159 L 373.56 286.159 C 373.946 286.159 374.311 286.327 374.558 286.621 C 374.803 286.919 374.908 287.314 374.838 287.697 L 372.527 300.303 Z"/>
        <path id="Tower_7_" style="stroke-miterlimit: 1; fill: rgb(223, 222, 222);" d="M 356.739 301.981 L 351.377 303.389 C 351.035 303.493 350.669 303.443 350.355 303.267 C 350.049 303.084 349.827 302.785 349.742 302.436 L 347.031 290.479 C 346.874 289.824 347.248 289.151 347.895 288.948 L 353.511 287.296 C 353.861 287.181 354.246 287.224 354.564 287.41 C 354.887 287.594 355.114 287.909 355.182 288.268 L 357.649 300.468 C 357.788 301.134 357.386 301.786 356.739 301.981 Z"/>
      </g>
    </g>
    <g transform="matrix(1, 0, 0, 1, 0.899447, -2.70391)">
      <g transform="matrix(1, 0, 0, 1, 7.633015, 20.43359)">
        <circle cx="233.779" cy="139.313" r="26.408" transform="matrix(1.036133, 0, 0, 1.090333, 0.140696, 189.2285)" style="stroke-opacity: 0; fill: rgb(247, 244, 244);"/>
        <path style="stroke: rgb(0, 0, 0); stroke-opacity: 0; fill: rgb(247, 244, 244);" d="M 217.319 342.558 L 46.518 337.787 L 221.136 356.871 L 217.319 342.558 Z"/>
        <path style="stroke: rgb(0, 0, 0); stroke-opacity: 0; fill: rgb(247, 244, 244);" d="M 433.445 353.055 L 263.598 357.826 L 438.216 338.742 L 433.445 353.055 Z" transform="matrix(-1, 0, 0, -1, 701.813995, 696.567993)"/>
        <path style="stroke: rgb(0, 0, 0); stroke-opacity: 0; fill: rgb(247, 244, 244);" d="M 261.928 325.382 L 321.089 326.336 L 262.882 331.107 L 261.928 325.382 Z"/>
        <path style="stroke: rgb(0, 0, 0); stroke-opacity: 0; fill: rgb(247, 244, 244);" d="M 163.645 331.107 L 222.806 330.153 L 164.599 325.382 L 163.645 331.107 Z" transform="matrix(-1, 0, 0, -1, 386.451004, 656.488983)"/>
        <path style="stroke: rgb(0, 0, 0); fill: rgb(247, 247, 247); stroke-opacity: 0;" d="M 239.028 315.363 L 241.891 272.424 L 245.707 317.272 L 239.028 315.363 Z"/>
        <g transform="matrix(-1, 0, 0, 1, 494.274811, -43.073666)">
          <circle cx="110.687" cy="396.947" r="13.562" style="fill: rgb(216, 216, 216);"/>
          <circle cx="110.687" cy="396.947" r="11.177" style="fill: rgb(52, 52, 52);"/>
          <circle cx="250" cy="250" r="5.452" transform="matrix(0.824982, 0, 0, 0.737473, -95.558479, 212.578308)" style="fill: rgb(229, 229, 229);"/>
        </g>
        <g transform="matrix(-1, 0, 0, 1, 414.122101, -35.486294)">
          <circle cx="110.687" cy="396.947" r="13.562" style="fill: rgb(216, 216, 216);"/>
          <circle cx="110.687" cy="396.947" r="11.177" style="fill: rgb(52, 52, 52);"/>
          <circle cx="250" cy="250" r="5.452" transform="matrix(0.824982, 0, 0, 0.737473, -95.558479, 212.578308)" style="fill: rgb(229, 229, 229);"/>
        </g>
        <g transform="matrix(1, 0, 0, 1, -11.450371, -42.142166)">
          <circle cx="110.687" cy="396.947" r="13.562" style="fill: rgb(216, 216, 216);"/>
          <circle cx="110.687" cy="396.947" r="11.177" style="fill: rgb(52, 52, 52);"/>
          <circle cx="250" cy="250" r="5.452" transform="matrix(0.824982, 0, 0, 0.737473, -95.558479, 212.578308)" style="fill: rgb(229, 229, 229);"/>
        </g>
        <g transform="matrix(1, 0, 0, 1, 68.702324, -34.554787)">
          <circle cx="110.687" cy="396.947" r="13.562" style="fill: rgb(216, 216, 216);"/>
          <circle cx="110.687" cy="396.947" r="11.177" style="fill: rgb(52, 52, 52);"/>
          <circle cx="250" cy="250" r="5.452" transform="matrix(0.824982, 0, 0, 0.737473, -95.558479, 212.578308)" style="fill: rgb(229, 229, 229);"/>
        </g>
      </g>
      <g transform="matrix(1, 0, 0, 1, -556.150513, 11.115303)">
        <polygon style="stroke: rgb(0, 0, 0); stroke-opacity: 0; fill: rgb(73, 72, 72);" points="795.931 337.209 793.98 344.194 805.164 344.362 805.164 337.514"/>
        <polygon style="stroke: rgb(0, 0, 0); stroke-opacity: 0; fill: rgb(73, 72, 72);" points="808.99 344.415 807.039 337.43 818.307 337.262 818.307 344.11" transform="matrix(-1, 0, 0, -1, 1625.346008, 681.677002)"/>
        <polygon style="stroke: rgb(0, 0, 0); stroke-opacity: 0; fill: rgb(73, 72, 72);" points="822.097 344.04 819.392 337.139 824.459 336.887 826.219 343.819" transform="matrix(-1, 0, 0, -1, 1645.611023, 680.927002)"/>
        <polygon style="stroke: rgb(0, 0, 0); stroke-opacity: 0; fill: rgb(73, 72, 72);" points="788.787 336.761 786.082 343.662 791.149 343.914 792.909 336.982"/>
      </g>
    </g>
    <rect x="424.598" y="314.507" width="3.253" height="8.47" style="fill: rgb(216, 216, 216);"/>
  </g>
  <path style="fill: rgb(216, 216, 216); stroke: rgb(0, 0, 0);" d="M 160.305 345.42"/>
  <path style="fill: rgb(216, 216, 216); stroke: rgb(0, 0, 0);" d="M 195.611 344.466"/>
  <path style="fill: rgb(216, 216, 216); stroke: rgb(0, 0, 0);" d="M 250 444.656" transform="matrix(-1, 0, 0, -1, 500, 889.312012)"/>
  <path style="fill: rgb(216, 216, 216); stroke: rgb(0, 0, 0);" d="M 250 444.656" transform="matrix(-1, 0, 0, -1, 500, 889.312012)"/>
  <path style="fill: rgb(216, 216, 216); stroke: rgb(0, 0, 0);" d="M 802.481 403.626"/>
  <polygon style="stroke: rgb(0, 0, 0); stroke-opacity: 0; fill: rgb(104, 104, 104);" points="800.965 341.491"/>
  <polygon style="stroke: rgb(0, 0, 0); stroke-opacity: 0; fill: rgb(104, 104, 104);" points="799.418 339.502"/>
  <line style="stroke: rgb(0, 0, 0);" x1="154.50684145574016" y1="286.7813496571508" x2="154.50684145574016" y2="286.7813496571508"/>
  <path style="fill: rgb(216, 216, 216); stroke: rgb(0, 0, 0);" d="M 76.369 486.067"/>
  <path style="fill: rgb(216, 216, 216); stroke: rgb(0, 0, 0);" d="M 141.314 293.215"/>
</svg>